<svg xmlns="http://www.w3.org/2000/svg" viewBox="0 0 1200 820" role="img" aria-label="Küste mit Felsen">
  <defs>
    <linearGradient id="sky3" x1="0" x2="0" y1="0" y2="1">
      <stop offset="0" stop-color="#253d64"/>
      <stop offset=".5" stop-color="#c48475"/>
      <stop offset="1" stop-color="#1e5066"/>
    </linearGradient>
  </defs>
  <rect width="1200" height="820" fill="url(#sky3)"/>
  <circle cx="290" cy="245" r="70" fill="#ffe1bd" opacity=".82"/>
  <path d="M0 455 C145 430 260 470 405 445 C610 410 785 470 970 438 C1070 421 1140 430 1200 415 L1200 820 0 820Z" fill="#1d6174"/>
  <path d="M0 600 C150 575 240 615 380 590 C555 558 700 640 890 600 C1040 570 1130 590 1200 566" fill="none" stroke="#d8f5f0" stroke-width="13" opacity=".42"/>
  <path d="M680 820 812 515 920 820Z" fill="#26221f"/>
  <path d="M820 820 1020 455 1200 820Z" fill="#171817"/>
  <path d="M0 820 230 535 430 820Z" fill="#20211f"/>
  <path d="M814 520 855 610 805 612Z" fill="#cabaa1" opacity=".38"/>
</svg>
