<svg xmlns="http://www.w3.org/2000/svg" viewBox="0 0 1200 820" role="img" aria-label="Bergsee bei Sonnenaufgang">
  <defs>
    <linearGradient id="sky" x1="0" x2="0" y1="0" y2="1">
      <stop offset="0" stop-color="#1e5778"/>
      <stop offset="0.48" stop-color="#e6a76c"/>
      <stop offset="1" stop-color="#143442"/>
    </linearGradient>
    <linearGradient id="water" x1="0" x2="1">
      <stop offset="0" stop-color="#143c4c"/>
      <stop offset="1" stop-color="#3a8090"/>
    </linearGradient>
  </defs>
  <rect width="1200" height="820" fill="url(#sky)"/>
  <circle cx="690" cy="270" r="95" fill="#ffe0a6" opacity=".9"/>
  <path d="M0 480 210 250 405 475 560 285 760 485 905 315 1200 520 1200 820 0 820Z" fill="#1a2630"/>
  <path d="M230 295 405 475 555 292 617 374 450 430Z" fill="#d7e4df" opacity=".65"/>
  <path d="M0 535 C180 500 290 545 440 522 C620 492 720 560 900 526 C1040 502 1125 522 1200 500 L1200 820 0 820Z" fill="url(#water)"/>
  <path d="M0 638 C230 600 420 665 650 620 C870 578 1020 640 1200 598" fill="none" stroke="#f5d496" stroke-width="10" opacity=".36"/>
  <path d="M0 710 C260 690 440 734 700 700 C910 672 1060 720 1200 690" fill="none" stroke="#b4e7ef" stroke-width="6" opacity=".25"/>
</svg>
