<svg xmlns="http://www.w3.org/2000/svg" viewBox="0 0 1200 820" role="img" aria-label="Nordlicht über Schnee">
  <defs>
    <linearGradient id="night" x1="0" x2="0" y1="0" y2="1">
      <stop offset="0" stop-color="#07101f"/>
      <stop offset=".62" stop-color="#13324d"/>
      <stop offset="1" stop-color="#d7e6ee"/>
    </linearGradient>
    <linearGradient id="aurora" x1="0" x2="1">
      <stop offset="0" stop-color="#5df0c5" stop-opacity=".05"/>
      <stop offset=".5" stop-color="#7cffb9" stop-opacity=".62"/>
      <stop offset="1" stop-color="#7fc9ff" stop-opacity=".04"/>
    </linearGradient>
  </defs>
  <rect width="1200" height="820" fill="url(#night)"/>
  <path d="M0 250 C200 80 410 360 620 175 C795 25 960 165 1200 95 L1200 300 C990 370 790 240 625 330 C430 435 210 215 0 410Z" fill="url(#aurora)"/>
  <g fill="#fff" opacity=".7">
    <circle cx="170" cy="120" r="3"/>
    <circle cx="320" cy="85" r="2"/>
    <circle cx="715" cy="92" r="3"/>
    <circle cx="1040" cy="160" r="2"/>
    <circle cx="930" cy="70" r="2"/>
  </g>
  <path d="M0 575 225 385 410 580 620 340 870 590 1030 430 1200 560 1200 820 0 820Z" fill="#17263a"/>
  <path d="M0 670 C260 620 435 705 650 655 C870 605 1010 680 1200 638 L1200 820 0 820Z" fill="#e7f1f5"/>
  <path d="M0 756 C230 720 390 790 620 748 C820 712 1030 770 1200 735" fill="none" stroke="#8fb8c8" stroke-width="8" opacity=".35"/>
</svg>
