<svg xmlns="http://www.w3.org/2000/svg" viewBox="0 0 1200 820" role="img" aria-label="Waldlichtung mit Nebel">
  <defs>
    <linearGradient id="bg" x1="0" x2="0" y1="0" y2="1">
      <stop offset="0" stop-color="#1d3140"/>
      <stop offset=".55" stop-color="#466353"/>
      <stop offset="1" stop-color="#122018"/>
    </linearGradient>
  </defs>
  <rect width="1200" height="820" fill="url(#bg)"/>
  <circle cx="820" cy="180" r="120" fill="#fff4c7" opacity=".28"/>
  <g opacity=".7">
    <path d="M90 700 190 245 288 700Z" fill="#0c1714"/>
    <path d="M270 720 390 155 510 720Z" fill="#10221a"/>
    <path d="M540 725 650 215 770 725Z" fill="#0d1c18"/>
    <path d="M790 720 925 120 1060 720Z" fill="#10251d"/>
  </g>
  <path d="M0 430 C180 400 320 445 500 418 C720 386 870 446 1200 390 L1200 590 C940 630 730 580 520 612 C320 640 190 575 0 620Z" fill="#d7e4cf" opacity=".18"/>
  <path d="M0 650 C210 610 360 700 560 655 C760 608 960 690 1200 640 L1200 820 0 820Z" fill="#172a1c"/>
  <path d="M0 760 C260 706 460 792 720 735 C930 690 1030 760 1200 722" fill="none" stroke="#9fcf9a" stroke-width="14" opacity=".26"/>
</svg>
